<svg width="601" height="615" viewBox="0 0 601 615" fill="none" xmlns="http://www.w3.org/2000/svg">
<path fill-rule="evenodd" clip-rule="evenodd" d="M289.839 54.0459C345.22 59.5727 401.504 21.9548 453.505 41.791C507.133 62.2479 546.336 110.972 572.714 161.95C598.523 211.829 602.688 269.163 600.184 325.268C597.756 379.68 587.017 433.974 558.505 480.382C530.389 526.147 489.868 565.26 440.193 585.687C393.009 605.088 340.735 587.348 289.839 590.856C234.478 594.673 178.466 628.083 127.022 607.276C74.9559 586.216 42.0965 532.788 19.3337 481.444C-2.26287 432.73 -1.76536 378.421 1.99764 325.268C5.56564 274.869 24.8571 229.374 40.5784 181.357C60.222 121.36 49.9393 35.8424 106.161 7.12706C163.413 -22.1146 225.87 47.6619 289.839 54.0459Z" fill="#0F9E59"/>
</svg>
