<svg width="390" height="206" viewBox="0 0 390 206" fill="none" xmlns="http://www.w3.org/2000/svg">
<g clip-path="url(#clip0_445_11)">
<path d="M150.944 27.2154L122.921 46.1614C117.04 50.1375 115.698 57.8466 119.924 63.38C124.15 68.9134 132.344 70.1758 138.225 66.1996L166.248 47.2536C172.129 43.2775 173.471 35.5685 169.245 30.0351C165.019 24.5017 156.825 23.2393 150.944 27.2154Z" fill="#FD2B25"/>
<path d="M130.632 69.4784C129.888 69.4784 129.092 69.4285 128.349 69.2786C124.633 68.7292 121.394 66.7811 119.165 63.934C116.988 61.0369 116.086 57.5405 116.723 54.044C117.307 50.5475 119.377 47.5006 122.403 45.4027L150.434 26.4718C153.513 24.4239 157.229 23.5747 160.945 24.1741C164.661 24.7236 167.9 26.6716 170.129 29.5187C172.306 32.4158 173.209 35.9123 172.571 39.4088C171.987 42.9052 169.917 45.9522 166.891 48.05L138.86 66.9809C136.418 68.6293 133.605 69.4784 130.685 69.4784H130.632ZM158.609 25.8225C156.114 25.8225 153.619 26.5717 151.548 27.9703L123.518 46.9012C120.863 48.6994 119.165 51.2968 118.634 54.3437C118.103 57.3407 118.846 60.3876 120.757 62.8351C122.668 65.3326 125.429 66.931 128.667 67.4305C131.853 67.93 135.091 67.2307 137.692 65.4325L165.723 46.5016C168.377 44.7034 170.076 42.106 170.607 39.0591C171.138 36.0621 170.395 33.0152 168.484 30.5677C166.572 28.0702 163.812 26.4718 160.573 25.9723C159.936 25.8724 159.246 25.8225 158.609 25.8225Z" fill="#1E1E1E"/>
<path d="M138.255 46.2042C132.374 42.228 124.181 43.4904 119.955 49.0239C115.729 54.5573 117.07 62.2663 122.951 66.2424L150.974 85.1884C156.855 89.1645 165.049 87.9021 169.275 82.3687C173.501 76.8353 172.159 69.1263 166.278 65.1502L138.255 46.2042Z" fill="#1F86FB"/>
<path d="M158.607 88.4093C155.688 88.4093 152.821 87.5601 150.432 85.9118L122.401 66.9809C116.084 62.7352 114.65 54.3936 119.163 48.4496C121.34 45.5525 124.631 43.6545 128.347 43.105C132.063 42.5556 135.78 43.3548 138.859 45.4027L166.889 64.3336C173.207 68.5793 174.64 76.9209 170.128 82.8649C167.951 85.762 164.66 87.66 160.943 88.2095C160.147 88.3094 159.404 88.4093 158.661 88.4093H158.607ZM130.63 44.8033C129.993 44.8033 129.303 44.8533 128.666 44.9532C125.48 45.4526 122.667 47.101 120.756 49.5485C118.844 52.046 118.101 55.043 118.632 58.0399C119.163 61.0369 120.915 63.6842 123.516 65.4824L151.547 84.4133C154.201 86.2115 157.386 86.9108 160.572 86.4113C163.757 85.9118 166.571 84.2635 168.482 81.816C170.393 79.3185 171.136 76.3215 170.605 73.3245C170.075 70.3275 168.323 67.6802 165.721 65.882L137.691 46.9511C135.62 45.5525 133.178 44.8033 130.63 44.8033Z" fill="#1E1E1E"/>
<path d="M218.683 46.1964L190.66 65.1423C184.779 69.1185 183.438 76.8275 187.664 82.3609C191.89 87.8943 200.083 89.1567 205.964 85.1806L233.987 66.2346C239.868 62.2585 241.21 54.5494 236.984 49.016C232.758 43.4826 224.564 42.2202 218.683 46.1964Z" fill="#FFA600"/>
<path d="M198.319 88.4094C193.913 88.4094 189.613 86.5113 186.852 82.9149C182.34 76.9709 183.773 68.6793 190.091 64.3837L218.121 45.4528C221.2 43.4048 224.917 42.5557 228.633 43.1551C232.349 43.7045 235.587 45.6526 237.817 48.4997C242.33 54.4437 240.896 62.7353 234.579 67.031L206.548 85.9619C204.053 87.6602 201.186 88.4594 198.319 88.4594V88.4094ZM226.297 44.8034C223.802 44.8034 221.307 45.5527 219.236 46.9513L191.206 65.8821C185.791 69.5784 184.516 76.7212 188.445 81.8161C192.374 86.9109 199.965 88.1097 205.38 84.4134L233.411 65.4825C238.826 61.7863 240.1 54.6435 236.171 49.5486C234.26 47.0512 231.5 45.4528 228.261 44.9533C227.624 44.8534 226.934 44.8034 226.297 44.8034Z" fill="#1E1E1E"/>
<path d="M205.941 27.1751C200.06 23.199 191.866 24.4614 187.64 29.9948C183.414 35.5282 184.756 43.2372 190.637 47.2134L218.66 66.1593C224.541 70.1355 232.734 68.8731 236.96 63.3397C241.186 57.8063 239.845 50.0973 233.964 46.1211L205.941 27.1751Z" fill="#00AA47"/>
<path d="M226.297 69.4781C223.377 69.4781 220.51 68.629 218.121 66.9806L190.091 48.0497C183.773 43.804 182.34 35.4624 186.852 29.5184C191.365 23.5744 200.231 22.2258 206.548 26.4715L234.579 45.4024C240.896 49.6481 242.33 57.9897 237.817 63.9337C235.64 66.8308 232.349 68.7289 228.633 69.2783C227.836 69.3782 227.093 69.4781 226.35 69.4781H226.297ZM188.445 30.5674C186.534 33.0649 185.791 36.0618 186.321 39.0588C186.852 42.0558 188.604 44.7031 191.206 46.5013L219.236 65.4322C221.891 67.2304 225.076 67.9297 228.261 67.4302C231.446 66.9307 234.26 65.2823 236.171 62.8348C238.083 60.3373 238.826 57.3404 238.295 54.3434C237.764 51.3464 236.012 48.6991 233.411 46.9009L205.38 27.97C199.965 24.2737 192.374 25.4725 188.445 30.5674Z" fill="#1E1E1E"/>
<path d="M76.0923 115.675C76.0923 117.885 75.4815 119.646 74.2598 120.958C72.8872 122.52 71.0822 123.301 68.8448 123.301C66.7035 123.301 64.8916 122.505 63.4092 120.913C61.9268 119.322 61.1855 117.362 61.1855 115.034C61.1855 112.705 61.9268 110.745 63.4092 109.154C64.8916 107.562 66.7035 106.766 68.8448 106.766C69.9292 106.766 70.9518 106.973 71.9126 107.385C72.8735 107.798 73.6627 108.38 74.2804 109.132L72.9215 110.59C72.4686 110.001 71.8783 109.544 71.1508 109.22C70.4371 108.881 69.6684 108.712 68.8448 108.712C67.2388 108.712 65.8799 109.308 64.7681 110.502C63.67 111.71 63.121 113.221 63.121 115.034C63.121 116.846 63.67 118.357 64.7681 119.565C65.8799 120.759 67.2388 121.356 68.8448 121.356C70.3135 121.356 71.5352 120.913 72.5097 120.029C73.4843 119.145 74.0471 117.929 74.1981 116.382H68.8448V114.481H75.9893C76.058 114.894 76.0923 115.291 76.0923 115.675Z" fill="#606060"/>
<path d="M77.3873 117.531C77.3873 115.866 77.8746 114.488 78.8492 113.398C79.8375 112.307 81.0797 111.762 82.5759 111.762C84.072 111.762 85.3074 112.307 86.282 113.398C87.2703 114.488 87.7644 115.866 87.7644 117.531C87.7644 119.211 87.2703 120.589 86.282 121.665C85.3074 122.755 84.072 123.301 82.5759 123.301C81.0797 123.301 79.8375 122.755 78.8492 121.665C77.8746 120.574 77.3873 119.197 77.3873 117.531ZM79.2816 117.531C79.2816 118.696 79.5973 119.639 80.2287 120.361C80.8601 121.083 81.6425 121.444 82.5759 121.444C83.5093 121.444 84.2917 121.083 84.9231 120.361C85.5545 119.639 85.8702 118.696 85.8702 117.531C85.8702 116.382 85.5545 115.446 84.9231 114.724C84.2779 113.987 83.4955 113.619 82.5759 113.619C81.6562 113.619 80.8738 113.987 80.2287 114.724C79.5973 115.446 79.2816 116.382 79.2816 117.531Z" fill="#606060"/>
<path d="M88.9086 117.531C88.9086 115.866 89.3959 114.488 90.3704 113.398C91.3587 112.307 92.6009 111.762 94.0971 111.762C95.5933 111.762 96.8286 112.307 97.8032 113.398C98.7915 114.488 99.2856 115.866 99.2856 117.531C99.2856 119.211 98.7915 120.589 97.8032 121.665C96.8286 122.755 95.5933 123.301 94.0971 123.301C92.6009 123.301 91.3587 122.755 90.3704 121.665C89.3959 120.574 88.9086 119.197 88.9086 117.531ZM90.8028 117.531C90.8028 118.696 91.1185 119.639 91.7499 120.361C92.3813 121.083 93.1637 121.444 94.0971 121.444C95.0305 121.444 95.8129 121.083 96.4443 120.361C97.0757 119.639 97.3914 118.696 97.3914 117.531C97.3914 116.382 97.0757 115.446 96.4443 114.724C95.7992 113.987 95.0168 113.619 94.0971 113.619C93.1774 113.619 92.395 113.987 91.7499 114.724C91.1185 115.446 90.8028 116.382 90.8028 117.531Z" fill="#606060"/>
<path d="M105.536 121.444C106.469 121.444 107.231 121.083 107.821 120.361C108.439 119.639 108.748 118.696 108.748 117.531C108.748 116.397 108.439 115.461 107.821 114.724C107.217 113.987 106.456 113.619 105.536 113.619C104.63 113.619 103.868 113.987 103.251 114.724C102.633 115.461 102.324 116.397 102.324 117.531C102.324 118.681 102.633 119.617 103.251 120.339C103.868 121.076 104.63 121.444 105.536 121.444ZM105.474 128.075C104.911 128.075 104.383 127.994 103.889 127.832C103.395 127.685 102.942 127.471 102.53 127.191C102.132 126.911 101.789 126.58 101.5 126.196C101.212 125.813 100.993 125.386 100.842 124.914L102.633 124.119C102.839 124.752 103.196 125.261 103.704 125.644C104.211 126.027 104.802 126.219 105.474 126.219C106.504 126.219 107.307 125.887 107.883 125.224C108.46 124.561 108.748 123.647 108.748 122.483V121.444H108.666C108.309 122.019 107.821 122.475 107.204 122.814C106.6 123.139 105.941 123.301 105.227 123.301C103.909 123.301 102.777 122.748 101.83 121.643C100.896 120.508 100.43 119.138 100.43 117.531C100.43 115.925 100.896 114.562 101.83 113.442C102.777 112.322 103.909 111.762 105.227 111.762C105.941 111.762 106.6 111.932 107.204 112.27C107.821 112.595 108.309 113.044 108.666 113.619H108.748V112.116H110.56V122.483C110.56 124.222 110.1 125.585 109.18 126.572C108.247 127.574 107.012 128.075 105.474 128.075Z" fill="#606060"/>
<path d="M114.764 107.12V122.947H112.869V107.12H114.764Z" fill="#606060"/>
<path d="M121.501 123.301C120.018 123.301 118.797 122.755 117.836 121.665C116.875 120.574 116.395 119.197 116.395 117.531C116.395 115.881 116.861 114.51 117.795 113.42C118.728 112.315 119.922 111.762 121.377 111.762C122.873 111.762 124.061 112.285 124.939 113.331C125.831 114.363 126.278 115.815 126.278 117.686L126.257 117.907H118.33C118.358 118.968 118.687 119.823 119.318 120.471C119.95 121.12 120.705 121.444 121.583 121.444C122.791 121.444 123.738 120.796 124.425 119.499L126.113 120.383C125.66 121.297 125.028 122.011 124.219 122.527C123.423 123.043 122.517 123.301 121.501 123.301ZM118.474 116.227H124.26C124.205 115.476 123.917 114.857 123.395 114.37C122.887 113.869 122.201 113.619 121.336 113.619C120.622 113.619 120.005 113.855 119.483 114.326C118.975 114.798 118.639 115.431 118.474 116.227Z" fill="#606060"/>
<path d="M132.863 122.947V107.12H137.372C139.623 107.12 141.429 107.849 142.787 109.308C144.16 110.767 144.846 112.676 144.846 115.034C144.846 117.406 144.16 119.322 142.787 120.781C141.429 122.225 139.623 122.947 137.372 122.947H132.863ZM134.758 109.065V121.002H137.372C139.088 121.002 140.44 120.479 141.428 119.432C142.417 118.371 142.911 116.905 142.911 115.034C142.911 113.177 142.417 111.718 141.428 110.657C140.44 109.596 139.088 109.065 137.372 109.065H134.758Z" fill="#606060"/>
<path d="M150.998 123.301C149.515 123.301 148.294 122.755 147.333 121.665C146.372 120.574 145.891 119.197 145.891 117.531C145.891 115.881 146.358 114.51 147.291 113.42C148.225 112.315 149.419 111.762 150.874 111.762C152.37 111.762 153.558 112.285 154.436 113.331C155.328 114.363 155.774 115.815 155.774 117.686L155.754 117.907H147.827C147.854 118.968 148.184 119.823 148.815 120.471C149.447 121.12 150.201 121.444 151.08 121.444C152.288 121.444 153.235 120.796 153.921 119.499L155.61 120.383C155.157 121.297 154.525 122.011 153.715 122.527C152.919 123.043 152.013 123.301 150.998 123.301ZM147.971 116.227H153.757C153.702 115.476 153.413 114.857 152.892 114.37C152.384 113.869 151.698 113.619 150.833 113.619C150.119 113.619 149.501 113.855 148.98 114.326C148.472 114.798 148.136 115.431 147.971 116.227Z" fill="#606060"/>
<path d="M162.206 122.947H160.312L156.235 112.116H158.294L161.259 120.516H161.3L164.306 112.116H166.324L162.206 122.947Z" fill="#606060"/>
<path d="M171.788 123.301C170.306 123.301 169.084 122.755 168.123 121.665C167.162 120.574 166.682 119.197 166.682 117.531C166.682 115.881 167.149 114.51 168.082 113.42C169.015 112.315 170.21 111.762 171.665 111.762C173.161 111.762 174.348 112.285 175.227 113.331C176.119 114.363 176.565 115.815 176.565 117.686L176.544 117.907H168.617C168.645 118.968 168.974 119.823 169.606 120.471C170.237 121.12 170.992 121.444 171.87 121.444C173.078 121.444 174.025 120.796 174.712 119.499L176.4 120.383C175.947 121.297 175.316 122.011 174.506 122.527C173.71 123.043 172.804 123.301 171.788 123.301ZM168.761 116.227H174.547C174.492 115.476 174.204 114.857 173.682 114.37C173.174 113.869 172.488 113.619 171.623 113.619C170.91 113.619 170.292 113.855 169.77 114.326C169.262 114.798 168.926 115.431 168.761 116.227Z" fill="#606060"/>
<path d="M180.191 107.12V122.947H178.297V107.12H180.191Z" fill="#606060"/>
<path d="M181.822 117.531C181.822 115.866 182.31 114.488 183.284 113.398C184.273 112.307 185.515 111.762 187.011 111.762C188.507 111.762 189.742 112.307 190.717 113.398C191.705 114.488 192.199 115.866 192.199 117.531C192.199 119.211 191.705 120.589 190.717 121.665C189.742 122.755 188.507 123.301 187.011 123.301C185.515 123.301 184.273 122.755 183.284 121.665C182.31 120.574 181.822 119.197 181.822 117.531ZM183.717 117.531C183.717 118.696 184.032 119.639 184.664 120.361C185.295 121.083 186.078 121.444 187.011 121.444C187.944 121.444 188.727 121.083 189.358 120.361C189.99 119.639 190.305 118.696 190.305 117.531C190.305 116.382 189.99 115.446 189.358 114.724C188.713 113.987 187.931 113.619 187.011 113.619C186.091 113.619 185.309 113.987 184.664 114.724C184.032 115.446 183.717 116.382 183.717 117.531Z" fill="#606060"/>
<path d="M198.761 121.444C199.667 121.444 200.429 121.076 201.046 120.339C201.664 119.617 201.973 118.681 201.973 117.531C201.973 116.397 201.664 115.461 201.046 114.724C200.429 113.987 199.667 113.619 198.761 113.619C197.841 113.619 197.073 113.987 196.455 114.724C195.851 115.461 195.549 116.397 195.549 117.531C195.549 118.681 195.851 119.624 196.455 120.361C197.073 121.083 197.841 121.444 198.761 121.444ZM199.07 123.301C198.329 123.301 197.649 123.131 197.032 122.792C196.428 122.453 195.961 122.004 195.631 121.444H195.549L195.631 122.947V127.722H193.737V112.116H195.549V113.619H195.631C195.961 113.059 196.428 112.609 197.032 112.27C197.649 111.932 198.329 111.762 199.07 111.762C200.401 111.762 201.527 112.322 202.447 113.442C203.394 114.577 203.867 115.94 203.867 117.531C203.867 119.138 203.394 120.501 202.447 121.621C201.527 122.741 200.401 123.301 199.07 123.301Z" fill="#606060"/>
<path d="M210.132 123.301C208.649 123.301 207.428 122.755 206.467 121.665C205.506 120.574 205.026 119.197 205.026 117.531C205.026 115.881 205.492 114.51 206.426 113.42C207.359 112.315 208.553 111.762 210.008 111.762C211.505 111.762 212.692 112.285 213.57 113.331C214.463 114.363 214.909 115.815 214.909 117.686L214.888 117.907H206.961C206.989 118.968 207.318 119.823 207.949 120.471C208.581 121.12 209.336 121.444 210.214 121.444C211.422 121.444 212.369 120.796 213.056 119.499L214.744 120.383C214.291 121.297 213.66 122.011 212.85 122.527C212.054 123.043 211.148 123.301 210.132 123.301ZM207.105 116.227H212.891C212.836 115.476 212.548 114.857 212.026 114.37C211.518 113.869 210.832 113.619 209.967 113.619C209.253 113.619 208.636 113.855 208.114 114.326C207.606 114.798 207.27 115.431 207.105 116.227Z" fill="#606060"/>
<path d="M218.535 122.947H216.641V112.116H218.453V113.884H218.535C218.727 113.309 219.118 112.823 219.709 112.425C220.313 112.013 220.903 111.806 221.479 111.806C222.028 111.806 222.495 111.895 222.879 112.072L222.303 114.039C222.07 113.936 221.699 113.884 221.191 113.884C220.477 113.884 219.853 114.194 219.318 114.813C218.796 115.431 218.535 116.154 218.535 116.979V122.947Z" fill="#606060"/>
<path d="M242.758 115.675C242.758 117.885 242.147 119.646 240.926 120.958C239.553 122.52 237.748 123.301 235.511 123.301C233.369 123.301 231.557 122.505 230.075 120.913C228.593 119.322 227.851 117.362 227.851 115.034C227.851 112.705 228.593 110.745 230.075 109.154C231.557 107.562 233.369 106.766 235.511 106.766C236.595 106.766 237.618 106.973 238.578 107.385C239.539 107.798 240.329 108.38 240.946 109.132L239.587 110.59C239.134 110.001 238.544 109.544 237.817 109.22C237.103 108.881 236.334 108.712 235.511 108.712C233.905 108.712 232.546 109.308 231.434 110.502C230.336 111.71 229.787 113.221 229.787 115.034C229.787 116.846 230.336 118.357 231.434 119.565C232.546 120.759 233.905 121.356 235.511 121.356C236.979 121.356 238.201 120.913 239.176 120.029C240.15 119.145 240.713 117.929 240.864 116.382H235.511V114.481H242.655C242.724 114.894 242.758 115.291 242.758 115.675Z" fill="#606060"/>
<path d="M246.222 122.947H244.328V112.116H246.14V113.884H246.222C246.414 113.309 246.806 112.823 247.396 112.425C248 112.013 248.59 111.806 249.167 111.806C249.716 111.806 250.182 111.895 250.567 112.072L249.99 114.039C249.757 113.936 249.386 113.884 248.878 113.884C248.165 113.884 247.54 114.194 247.005 114.813C246.483 115.431 246.222 116.154 246.222 116.979V122.947Z" fill="#606060"/>
<path d="M250.608 117.531C250.608 115.866 251.095 114.488 252.07 113.398C253.058 112.307 254.3 111.762 255.797 111.762C257.293 111.762 258.528 112.307 259.503 113.398C260.491 114.488 260.985 115.866 260.985 117.531C260.985 119.211 260.491 120.589 259.503 121.665C258.528 122.755 257.293 123.301 255.797 123.301C254.3 123.301 253.058 122.755 252.07 121.665C251.095 120.574 250.608 119.197 250.608 117.531ZM252.502 117.531C252.502 118.696 252.818 119.639 253.449 120.361C254.081 121.083 254.863 121.444 255.797 121.444C256.73 121.444 257.512 121.083 258.144 120.361C258.775 119.639 259.091 118.696 259.091 117.531C259.091 116.382 258.775 115.446 258.144 114.724C257.499 113.987 256.716 113.619 255.797 113.619C254.877 113.619 254.094 113.987 253.449 114.724C252.818 115.446 252.502 116.382 252.502 117.531Z" fill="#606060"/>
<path d="M271.459 122.947H269.647V121.444H269.564C269.276 121.974 268.83 122.417 268.226 122.77C267.636 123.124 267.018 123.301 266.373 123.301C265.138 123.301 264.184 122.925 263.511 122.173C262.852 121.407 262.523 120.324 262.523 118.924V112.116H264.417V118.791C264.458 120.56 265.289 121.444 266.908 121.444C267.663 121.444 268.295 121.12 268.803 120.471C269.31 119.808 269.564 119.02 269.564 118.106V112.116H271.459V122.947Z" fill="#606060"/>
<path d="M278.706 121.444C279.612 121.444 280.374 121.076 280.991 120.339C281.609 119.617 281.918 118.681 281.918 117.531C281.918 116.397 281.609 115.461 280.991 114.724C280.374 113.987 279.612 113.619 278.706 113.619C277.786 113.619 277.018 113.987 276.4 114.724C275.796 115.461 275.494 116.397 275.494 117.531C275.494 118.681 275.796 119.624 276.4 120.361C277.018 121.083 277.786 121.444 278.706 121.444ZM279.015 123.301C278.274 123.301 277.594 123.131 276.976 122.792C276.372 122.453 275.906 122.004 275.576 121.444H275.494L275.576 122.947V127.722H273.682V112.116H275.494V113.619H275.576C275.906 113.059 276.372 112.609 276.976 112.27C277.594 111.932 278.274 111.762 279.015 111.762C280.346 111.762 281.472 112.322 282.391 113.442C283.339 114.577 283.812 115.94 283.812 117.531C283.812 119.138 283.339 120.501 282.391 121.621C281.472 122.741 280.346 123.301 279.015 123.301Z" fill="#606060"/>
<path d="M293.168 119.941C293.168 120.884 292.783 121.68 292.015 122.328C291.246 122.977 290.278 123.301 289.111 123.301C288.096 123.301 287.204 123.021 286.435 122.461C285.666 121.886 285.117 121.134 284.788 120.206L286.476 119.432C286.723 120.081 287.08 120.589 287.547 120.958C288.027 121.311 288.549 121.488 289.111 121.488C289.715 121.488 290.216 121.348 290.615 121.068C291.026 120.788 291.232 120.457 291.232 120.073C291.232 119.381 290.738 118.872 289.75 118.548L288.02 118.084C286.057 117.553 285.076 116.537 285.076 115.034C285.076 114.046 285.447 113.258 286.188 112.668C286.943 112.064 287.904 111.762 289.07 111.762C289.963 111.762 290.765 111.99 291.479 112.447C292.207 112.904 292.715 113.516 293.003 114.282L291.315 115.034C291.122 114.577 290.807 114.223 290.367 113.973C289.942 113.707 289.462 113.575 288.926 113.575C288.432 113.575 287.986 113.707 287.588 113.973C287.204 114.238 287.011 114.562 287.011 114.945C287.011 115.564 287.554 116.006 288.638 116.271L290.162 116.691C292.166 117.222 293.168 118.305 293.168 119.941Z" fill="#606060"/>
<path d="M68.6662 148.094C67.9468 148.094 67.2809 147.953 66.6684 147.673C66.0608 147.387 65.531 146.994 65.0789 146.496C64.6269 145.991 64.2745 145.409 64.0217 144.749C63.769 144.089 63.6426 143.38 63.6426 142.621C63.6426 141.863 63.769 141.153 64.0217 140.493C64.2745 139.833 64.6269 139.254 65.0789 138.755C65.531 138.251 66.0608 137.858 66.6684 137.578C67.2809 137.292 67.9468 137.149 68.6662 137.149C69.3905 137.149 70.0564 137.292 70.664 137.578C71.2765 137.858 71.8087 138.251 72.2608 138.755C72.7128 139.254 73.0628 139.833 73.3107 140.493C73.5635 141.153 73.6899 141.863 73.6899 142.621C73.6899 143.38 73.5635 144.089 73.3107 144.749C73.0628 145.409 72.7128 145.991 72.2608 146.496C71.8087 146.994 71.2765 147.387 70.664 147.673C70.0564 147.953 69.3905 148.094 68.6662 148.094ZM68.6662 146.909C69.3808 146.909 70.0272 146.729 70.6057 146.371C71.1841 146.007 71.6459 145.5 71.991 144.851C72.341 144.201 72.516 143.458 72.516 142.621C72.516 141.774 72.341 141.028 71.991 140.384C71.6459 139.74 71.1841 139.238 70.6057 138.879C70.0272 138.516 69.3808 138.334 68.6662 138.334C67.9663 138.334 67.3246 138.516 66.7413 138.879C66.158 139.238 65.6914 139.74 65.3414 140.384C64.9963 141.028 64.8238 141.774 64.8238 142.621C64.8238 143.458 64.9963 144.201 65.3414 144.851C65.6914 145.5 66.158 146.007 66.7413 146.371C67.3246 146.729 67.9663 146.909 68.6662 146.909ZM75.099 147.86V140.4H76.2072V141.499H76.2656C76.4454 141.135 76.7419 140.823 77.1551 140.563C77.5731 140.298 78.03 140.166 78.5258 140.166C79.3813 140.166 80.0254 140.431 80.458 140.961C80.8906 141.491 81.1069 142.195 81.1069 143.073V147.86H79.9476V143.268C79.9476 142.546 79.7848 142.037 79.4591 141.74C79.1334 141.439 78.7154 141.288 78.205 141.288C77.821 141.288 77.4832 141.403 77.1915 141.631C76.8999 141.86 76.6714 142.156 76.5062 142.52C76.3458 142.879 76.2656 143.258 76.2656 143.658V147.86H75.099ZM90.5119 148.094C89.7925 148.094 89.1242 147.956 88.5069 147.68C87.8895 147.4 87.35 147.013 86.8882 146.519C86.4313 146.025 86.074 145.446 85.8164 144.781C85.5588 144.11 85.43 143.39 85.43 142.621C85.43 141.842 85.5588 141.122 85.8164 140.462C86.074 139.797 86.4313 139.217 86.8882 138.724C87.35 138.23 87.8895 137.845 88.5069 137.57C89.1242 137.289 89.7925 137.149 90.5119 137.149C91.0126 137.149 91.4792 137.219 91.9118 137.359C92.3445 137.495 92.743 137.689 93.1076 137.944C93.477 138.194 93.8076 138.5 94.0992 138.864L93.2607 139.721C93.0128 139.399 92.7503 139.137 92.4733 138.934C92.1962 138.731 91.8948 138.581 91.5692 138.482C91.2483 138.383 90.8959 138.334 90.5119 138.334C89.8071 138.334 89.1582 138.511 88.5652 138.864C87.9722 139.212 87.4982 139.706 87.1434 140.345C86.7886 140.984 86.6111 141.743 86.6111 142.621C86.6111 143.489 86.7886 144.245 87.1434 144.89C87.4982 145.534 87.9722 146.033 88.5652 146.386C89.1582 146.735 89.8071 146.909 90.5119 146.909C90.9397 146.909 91.3334 146.846 91.6931 146.722C92.0528 146.592 92.3858 146.41 92.692 146.176C92.9982 145.942 93.2802 145.664 93.5378 145.342L94.3836 146.223C94.1016 146.581 93.7614 146.904 93.3628 147.189C92.9691 147.47 92.5316 147.691 92.0504 147.852C91.5692 148.013 91.0563 148.094 90.5119 148.094ZM97.7762 148.094C97.2561 148.094 96.7992 147.987 96.4055 147.774C96.0166 147.556 95.7104 147.26 95.4868 146.885C95.2632 146.511 95.1514 146.085 95.1514 145.607C95.1514 145.061 95.2826 144.601 95.5451 144.227C95.8125 143.848 96.1697 143.565 96.6169 143.377C97.0641 143.185 97.5551 143.089 98.0898 143.089C98.4008 143.089 98.6876 143.118 98.9501 143.175C99.2175 143.227 99.4483 143.289 99.6428 143.362C99.8421 143.435 99.9903 143.505 100.088 143.572V143.12C100.088 142.554 99.9004 142.104 99.5261 141.772C99.1567 141.439 98.7022 141.273 98.1627 141.273C97.7787 141.273 97.419 141.364 97.0836 141.546C96.753 141.727 96.4905 141.979 96.2961 142.302L95.4212 141.6C95.6059 141.304 95.8343 141.049 96.1065 140.836C96.3836 140.623 96.6971 140.459 97.0471 140.345C97.3971 140.225 97.7689 140.166 98.1627 140.166C99.1105 140.166 99.8518 140.433 100.386 140.969C100.926 141.504 101.196 142.226 101.196 143.136V147.86H100.088V146.792H100.037C99.9198 147.005 99.7497 147.213 99.5261 147.415C99.3074 147.613 99.0498 147.774 98.7533 147.899C98.4567 148.029 98.1311 148.094 97.7762 148.094ZM97.8856 146.994C98.289 146.994 98.656 146.888 98.9866 146.675C99.322 146.462 99.5893 146.176 99.7886 145.817C99.9879 145.454 100.088 145.056 100.088 144.625C99.8785 144.469 99.616 144.344 99.3001 144.251C98.989 144.152 98.6463 144.102 98.272 144.102C97.6061 144.102 97.1176 144.248 96.8065 144.539C96.4954 144.83 96.3399 145.191 96.3399 145.622C96.3399 146.033 96.4857 146.366 96.7773 146.62C97.069 146.87 97.4384 146.994 97.8856 146.994ZM102.812 147.86V140.4H103.92V141.499H103.979C104.105 141.254 104.28 141.034 104.504 140.836C104.727 140.633 104.983 140.472 105.269 140.353C105.556 140.228 105.85 140.166 106.152 140.166C106.672 140.166 107.119 140.301 107.493 140.571C107.867 140.836 108.137 141.184 108.302 141.616C108.541 141.195 108.859 140.849 109.258 140.579C109.661 140.303 110.14 140.166 110.694 140.166C111.525 140.166 112.138 140.433 112.531 140.969C112.925 141.504 113.122 142.206 113.122 143.073V147.86H111.97V143.268C111.97 142.546 111.831 142.037 111.554 141.74C111.282 141.439 110.896 141.288 110.395 141.288C110.04 141.288 109.722 141.4 109.44 141.623C109.163 141.842 108.944 142.13 108.784 142.489C108.628 142.842 108.55 143.227 108.55 143.642V147.86H107.384V143.276C107.384 142.559 107.248 142.05 106.975 141.748C106.703 141.442 106.319 141.288 105.823 141.288C105.469 141.288 105.15 141.403 104.868 141.631C104.591 141.855 104.372 142.146 104.212 142.504C104.057 142.863 103.979 143.253 103.979 143.674V147.86H102.812ZM114.787 151.017V140.4H115.895V141.507H115.954C116.08 141.273 116.26 141.054 116.493 140.852C116.727 140.649 116.996 140.485 117.303 140.361C117.614 140.231 117.956 140.166 118.331 140.166C118.972 140.166 119.543 140.337 120.044 140.68C120.545 141.018 120.941 141.486 121.232 142.083C121.524 142.676 121.67 143.357 121.67 144.126C121.67 144.9 121.524 145.586 121.232 146.184C120.941 146.776 120.545 147.244 120.044 147.587C119.543 147.925 118.972 148.094 118.331 148.094C117.776 148.094 117.288 147.959 116.865 147.688C116.447 147.413 116.143 147.104 115.954 146.761H115.895L115.954 147.79V151.017H114.787ZM118.214 146.971C118.613 146.971 118.987 146.857 119.337 146.628C119.692 146.394 119.976 146.064 120.19 145.638C120.404 145.207 120.511 144.703 120.511 144.126C120.511 143.544 120.404 143.04 120.19 142.613C119.976 142.187 119.692 141.86 119.337 141.631C118.987 141.403 118.613 141.288 118.214 141.288C117.81 141.288 117.431 141.403 117.076 141.631C116.727 141.86 116.442 142.187 116.223 142.613C116.005 143.04 115.895 143.544 115.895 144.126C115.895 144.713 116.005 145.22 116.223 145.646C116.442 146.067 116.727 146.394 117.076 146.628C117.431 146.857 117.81 146.971 118.214 146.971ZM125.487 148.094C124.632 148.094 123.988 147.826 123.555 147.291C123.123 146.755 122.906 146.023 122.906 145.092V140.4H124.066V144.905C124.066 145.643 124.226 146.173 124.547 146.496C124.868 146.813 125.264 146.971 125.735 146.971C126.148 146.971 126.506 146.857 126.807 146.628C127.108 146.394 127.339 146.098 127.5 145.739C127.665 145.376 127.748 144.999 127.748 144.609V140.4H128.914V147.86H127.806V146.776H127.748C127.631 147.01 127.456 147.228 127.223 147.431C126.989 147.629 126.724 147.787 126.428 147.907C126.131 148.031 125.818 148.094 125.487 148.094ZM133.002 148.094C132.482 148.094 132.022 148.005 131.624 147.829C131.23 147.647 130.902 147.402 130.639 147.096C130.382 146.784 130.19 146.449 130.063 146.09L131.099 145.591C131.283 146.038 131.548 146.384 131.893 146.628C132.243 146.872 132.642 146.994 133.089 146.994C133.517 146.994 133.874 146.904 134.161 146.722C134.448 146.535 134.591 146.259 134.591 145.895C134.591 145.672 134.53 145.485 134.409 145.334C134.292 145.183 134.12 145.056 133.891 144.952C133.663 144.843 133.386 144.744 133.06 144.656L132.207 144.422C131.881 144.323 131.573 144.188 131.281 144.017C130.989 143.84 130.754 143.614 130.574 143.338C130.399 143.058 130.311 142.717 130.311 142.317C130.311 141.865 130.433 141.478 130.676 141.156C130.924 140.834 131.247 140.589 131.646 140.423C132.049 140.251 132.479 140.166 132.936 140.166C133.34 140.166 133.716 140.228 134.066 140.353C134.416 140.472 134.722 140.652 134.985 140.891C135.252 141.13 135.454 141.423 135.59 141.772L134.577 142.27C134.407 141.902 134.173 141.644 133.877 141.499C133.585 141.348 133.262 141.273 132.907 141.273C132.523 141.273 132.19 141.364 131.908 141.546C131.626 141.727 131.485 141.974 131.485 142.286C131.485 142.598 131.602 142.832 131.835 142.988C132.068 143.144 132.353 143.271 132.688 143.37L133.702 143.642C134.387 143.83 134.902 144.108 135.247 144.477C135.597 144.84 135.772 145.285 135.772 145.81C135.772 146.277 135.648 146.683 135.401 147.026C135.153 147.369 134.817 147.634 134.394 147.821C133.976 148.003 133.512 148.094 133.002 148.094Z" fill="#55B2FF"/>
<path d="M141.971 144.774C141.684 144.774 141.424 144.699 141.191 144.548C140.962 144.397 140.775 144.197 140.629 143.948C140.488 143.698 140.418 143.423 140.418 143.121C140.418 142.82 140.488 142.544 140.629 142.295C140.775 142.046 140.962 141.846 141.191 141.695C141.424 141.544 141.684 141.469 141.971 141.469C142.253 141.469 142.508 141.544 142.737 141.695C142.965 141.846 143.15 142.046 143.291 142.295C143.432 142.544 143.502 142.82 143.502 143.121C143.502 143.423 143.432 143.698 143.291 143.948C143.15 144.197 142.965 144.397 142.737 144.548C142.508 144.699 142.253 144.774 141.971 144.774ZM148.836 147.861V137.384H152.147C152.696 137.384 153.201 137.516 153.663 137.782C154.125 138.041 154.494 138.405 154.771 138.873C155.049 139.335 155.187 139.873 155.187 140.487C155.187 140.855 155.124 141.224 154.997 141.593C154.871 141.957 154.672 142.29 154.4 142.591C154.132 142.893 153.79 143.134 153.372 143.316C152.958 143.498 152.465 143.589 151.891 143.589H149.456V142.435H152.081C152.416 142.435 152.73 142.352 153.022 142.186C153.318 142.02 153.556 141.791 153.736 141.5C153.921 141.204 154.013 140.866 154.013 140.487C154.013 140.175 153.938 139.873 153.787 139.582C153.636 139.286 153.423 139.044 153.146 138.857C152.873 138.665 152.545 138.569 152.161 138.569H150.003V147.861H148.836ZM151.206 143.059L152.475 142.989L155.573 147.799V147.861H154.203L151.206 143.059ZM158.731 148.095C158.211 148.095 157.754 147.988 157.36 147.775C156.971 147.557 156.665 147.261 156.441 146.887C156.218 146.512 156.106 146.086 156.106 145.608C156.106 145.062 156.237 144.602 156.5 144.228C156.767 143.849 157.124 143.566 157.571 143.379C158.019 143.186 158.51 143.09 159.044 143.09C159.355 143.09 159.642 143.119 159.905 143.176C160.172 143.228 160.403 143.29 160.597 143.363C160.797 143.436 160.945 143.506 161.042 143.573V143.121C161.042 142.555 160.855 142.105 160.481 141.773C160.111 141.44 159.657 141.274 159.117 141.274C158.733 141.274 158.373 141.365 158.038 141.547C157.708 141.729 157.445 141.981 157.251 142.303L156.376 141.601C156.56 141.305 156.789 141.05 157.061 140.837C157.338 140.624 157.652 140.461 158.002 140.346C158.352 140.227 158.723 140.167 159.117 140.167C160.065 140.167 160.806 140.435 161.341 140.97C161.881 141.505 162.15 142.227 162.15 143.137V147.861H161.042V146.793H160.991C160.874 147.006 160.704 147.214 160.481 147.417C160.262 147.614 160.004 147.775 159.708 147.9C159.411 148.03 159.086 148.095 158.731 148.095ZM158.84 146.996C159.244 146.996 159.611 146.889 159.941 146.676C160.276 146.463 160.544 146.177 160.743 145.819C160.942 145.455 161.042 145.057 161.042 144.626C160.833 144.47 160.571 144.345 160.255 144.252C159.944 144.153 159.601 144.104 159.227 144.104C158.561 144.104 158.072 144.249 157.761 144.54C157.45 144.831 157.294 145.192 157.294 145.624C157.294 146.034 157.44 146.367 157.732 146.621C158.023 146.871 158.393 146.996 158.84 146.996ZM163.767 147.861V140.401H164.875V141.5H164.933C165.06 141.256 165.235 141.035 165.458 140.837C165.682 140.635 165.937 140.474 166.224 140.354C166.511 140.229 166.805 140.167 167.106 140.167C167.626 140.167 168.073 140.302 168.448 140.572C168.822 140.837 169.092 141.185 169.257 141.617C169.495 141.196 169.814 140.85 170.212 140.58C170.616 140.305 171.094 140.167 171.648 140.167C172.48 140.167 173.092 140.435 173.486 140.97C173.88 141.505 174.076 142.207 174.076 143.075V147.861H172.924V143.269C172.924 142.547 172.786 142.038 172.509 141.742C172.237 141.44 171.85 141.289 171.35 141.289C170.995 141.289 170.676 141.401 170.394 141.625C170.117 141.843 169.899 142.131 169.738 142.49C169.583 142.843 169.505 143.228 169.505 143.644V147.861H168.338V143.277C168.338 142.56 168.202 142.051 167.93 141.749C167.658 141.443 167.274 141.289 166.778 141.289C166.423 141.289 166.105 141.404 165.823 141.632C165.546 141.856 165.327 142.147 165.167 142.506C165.011 142.864 164.933 143.254 164.933 143.675V147.861H163.767ZM178.716 148.095C178.084 148.095 177.516 147.926 177.01 147.588C176.505 147.245 176.106 146.777 175.814 146.185C175.523 145.587 175.377 144.901 175.377 144.127C175.377 143.358 175.523 142.677 175.814 142.085C176.106 141.487 176.505 141.019 177.01 140.681C177.516 140.338 178.084 140.167 178.716 140.167C179.091 140.167 179.431 140.232 179.737 140.362C180.048 140.487 180.32 140.65 180.554 140.853C180.787 141.056 180.967 141.274 181.093 141.508H181.152L181.093 140.471V137.384H182.26V147.861H181.152V146.762H181.093C180.967 146.985 180.787 147.201 180.554 147.409C180.32 147.611 180.048 147.775 179.737 147.9C179.431 148.03 179.091 148.095 178.716 148.095ZM178.833 146.972C179.236 146.972 179.613 146.858 179.963 146.629C180.318 146.395 180.605 146.068 180.824 145.647C181.042 145.221 181.152 144.714 181.152 144.127C181.152 143.545 181.042 143.041 180.824 142.615C180.605 142.189 180.318 141.861 179.963 141.632C179.613 141.404 179.236 141.289 178.833 141.289C178.434 141.289 178.058 141.404 177.703 141.632C177.353 141.861 177.069 142.189 176.85 142.615C176.631 143.041 176.522 143.545 176.522 144.127C176.522 144.704 176.631 145.208 176.85 145.639C177.069 146.065 177.353 146.395 177.703 146.629C178.058 146.858 178.434 146.972 178.833 146.972ZM187.018 148.095C186.342 148.095 185.742 147.926 185.217 147.588C184.697 147.245 184.289 146.777 183.992 146.185C183.696 145.587 183.547 144.906 183.547 144.143C183.547 143.431 183.686 142.773 183.963 142.17C184.24 141.562 184.631 141.076 185.137 140.713C185.642 140.349 186.238 140.167 186.923 140.167C187.618 140.167 188.214 140.331 188.709 140.658C189.205 140.98 189.587 141.43 189.854 142.007C190.126 142.583 190.262 143.243 190.262 143.987C190.262 144.054 190.26 144.122 190.255 144.189C190.25 144.257 190.243 144.314 190.233 144.361H184.225V143.34H189.03C189.021 143.137 188.977 142.916 188.899 142.677C188.821 142.438 188.697 142.214 188.527 142.007C188.362 141.794 188.148 141.622 187.886 141.492C187.628 141.357 187.307 141.289 186.923 141.289C186.466 141.289 186.07 141.414 185.735 141.664C185.404 141.913 185.149 142.253 184.969 142.685C184.794 143.111 184.707 143.597 184.707 144.143C184.707 144.777 184.821 145.304 185.049 145.725C185.278 146.146 185.572 146.46 185.932 146.668C186.291 146.871 186.668 146.972 187.062 146.972C187.572 146.972 187.992 146.842 188.323 146.582C188.658 146.323 188.926 146.003 189.125 145.624L190.117 146.138C189.84 146.699 189.446 147.167 188.935 147.541C188.425 147.91 187.786 148.095 187.018 148.095ZM194.901 148.095C194.201 148.095 193.581 147.921 193.041 147.573C192.502 147.219 192.079 146.744 191.773 146.146C191.471 145.543 191.321 144.87 191.321 144.127C191.321 143.389 191.471 142.721 191.773 142.124C192.079 141.521 192.502 141.045 193.041 140.697C193.581 140.344 194.201 140.167 194.901 140.167C195.606 140.167 196.225 140.346 196.76 140.705C197.3 141.058 197.722 141.536 198.029 142.139C198.335 142.737 198.488 143.399 198.488 144.127C198.488 144.87 198.335 145.543 198.029 146.146C197.722 146.744 197.3 147.219 196.76 147.573C196.225 147.921 195.606 148.095 194.901 148.095ZM194.901 146.972C195.324 146.972 195.72 146.861 196.089 146.637C196.459 146.408 196.758 146.084 196.986 145.663C197.214 145.236 197.329 144.725 197.329 144.127C197.329 143.535 197.214 143.028 196.986 142.607C196.758 142.181 196.459 141.856 196.089 141.632C195.72 141.404 195.324 141.289 194.901 141.289C194.483 141.289 194.087 141.404 193.712 141.632C193.338 141.856 193.037 142.181 192.808 142.607C192.58 143.028 192.465 143.535 192.465 144.127C192.465 144.725 192.58 145.236 192.808 145.663C193.037 146.084 193.338 146.408 193.712 146.637C194.087 146.861 194.483 146.972 194.901 146.972ZM203.317 148.095C202.943 148.095 202.6 148.03 202.289 147.9C201.983 147.775 201.713 147.611 201.48 147.409C201.246 147.201 201.066 146.985 200.94 146.762H200.882V147.861H199.773V137.384H200.94V140.471L200.882 141.508H200.94C201.066 141.274 201.246 141.056 201.48 140.853C201.713 140.65 201.983 140.487 202.289 140.362C202.6 140.232 202.943 140.167 203.317 140.167C203.959 140.167 204.53 140.338 205.03 140.681C205.531 141.019 205.927 141.487 206.219 142.085C206.511 142.677 206.656 143.358 206.656 144.127C206.656 144.901 206.511 145.587 206.219 146.185C205.927 146.777 205.531 147.245 205.03 147.588C204.53 147.926 203.959 148.095 203.317 148.095ZM203.2 146.972C203.599 146.972 203.973 146.858 204.323 146.629C204.678 146.395 204.962 146.065 205.176 145.639C205.39 145.208 205.497 144.704 205.497 144.127C205.497 143.545 205.39 143.041 205.176 142.615C204.962 142.189 204.678 141.861 204.323 141.632C203.973 141.404 203.599 141.289 203.2 141.289C202.797 141.289 202.418 141.404 202.063 141.632C201.713 141.861 201.429 142.189 201.21 142.615C200.991 143.041 200.882 143.545 200.882 144.127C200.882 144.714 200.991 145.221 201.21 145.647C201.429 146.068 201.713 146.395 202.063 146.629C202.418 146.858 202.797 146.972 203.2 146.972ZM210.243 148.095C209.723 148.095 209.266 147.988 208.873 147.775C208.484 147.557 208.177 147.261 207.954 146.887C207.73 146.512 207.618 146.086 207.618 145.608C207.618 145.062 207.75 144.602 208.012 144.228C208.28 143.849 208.637 143.566 209.084 143.379C209.531 143.186 210.022 143.09 210.557 143.09C210.868 143.09 211.155 143.119 211.417 143.176C211.685 143.228 211.915 143.29 212.11 143.363C212.309 143.436 212.457 143.506 212.555 143.573V143.121C212.555 142.555 212.367 142.105 211.993 141.773C211.624 141.44 211.169 141.274 210.63 141.274C210.246 141.274 209.886 141.365 209.551 141.547C209.22 141.729 208.958 141.981 208.763 142.303L207.888 141.601C208.073 141.305 208.301 141.05 208.574 140.837C208.851 140.624 209.164 140.461 209.514 140.346C209.864 140.227 210.236 140.167 210.63 140.167C211.578 140.167 212.319 140.435 212.854 140.97C213.393 141.505 213.663 142.227 213.663 143.137V147.861H212.555V146.793H212.504C212.387 147.006 212.217 147.214 211.993 147.417C211.774 147.614 211.517 147.775 211.22 147.9C210.924 148.03 210.598 148.095 210.243 148.095ZM210.353 146.996C210.756 146.996 211.123 146.889 211.454 146.676C211.789 146.463 212.056 146.177 212.256 145.819C212.455 145.455 212.555 145.057 212.555 144.626C212.346 144.47 212.083 144.345 211.767 144.252C211.456 144.153 211.113 144.104 210.739 144.104C210.073 144.104 209.585 144.249 209.274 144.54C208.962 144.831 208.807 145.192 208.807 145.624C208.807 146.034 208.953 146.367 209.244 146.621C209.536 146.871 209.905 146.996 210.353 146.996ZM218.823 148.095C218.448 148.095 218.106 148.03 217.795 147.9C217.488 147.775 217.219 147.611 216.985 147.409C216.752 147.201 216.572 146.985 216.446 146.762H216.387V147.861H215.279V137.384H216.446V140.471L216.387 141.508H216.446C216.572 141.274 216.752 141.056 216.985 140.853C217.219 140.65 217.488 140.487 217.795 140.362C218.106 140.232 218.448 140.167 218.823 140.167C219.464 140.167 220.036 140.338 220.536 140.681C221.037 141.019 221.433 141.487 221.725 142.085C222.016 142.677 222.162 143.358 222.162 144.127C222.162 144.901 222.016 145.587 221.725 146.185C221.433 146.777 221.037 147.245 220.536 147.588C220.036 147.926 219.464 148.095 218.823 148.095ZM218.706 146.972C219.105 146.972 219.479 146.858 219.829 146.629C220.184 146.395 220.468 146.065 220.682 145.639C220.896 145.208 221.003 144.704 221.003 144.127C221.003 143.545 220.896 143.041 220.682 142.615C220.468 142.189 220.184 141.861 219.829 141.632C219.479 141.404 219.105 141.289 218.706 141.289C218.303 141.289 217.923 141.404 217.569 141.632C217.219 141.861 216.934 142.189 216.716 142.615C216.497 143.041 216.387 143.545 216.387 144.127C216.387 144.714 216.497 145.221 216.716 145.647C216.934 146.068 217.219 146.395 217.569 146.629C217.923 146.858 218.303 146.972 218.706 146.972ZM225.749 148.095C225.229 148.095 224.772 147.988 224.378 147.775C223.989 147.557 223.683 147.261 223.46 146.887C223.236 146.512 223.124 146.086 223.124 145.608C223.124 145.062 223.255 144.602 223.518 144.228C223.785 143.849 224.143 143.566 224.59 143.379C225.037 143.186 225.528 143.09 226.063 143.09C226.374 143.09 226.66 143.119 226.923 143.176C227.19 143.228 227.421 143.29 227.616 143.363C227.815 143.436 227.963 143.506 228.06 143.573V143.121C228.06 142.555 227.873 142.105 227.499 141.773C227.13 141.44 226.675 141.274 226.135 141.274C225.751 141.274 225.392 141.365 225.056 141.547C224.726 141.729 224.463 141.981 224.269 142.303L223.394 141.601C223.579 141.305 223.807 141.05 224.079 140.837C224.356 140.624 224.67 140.461 225.02 140.346C225.37 140.227 225.742 140.167 226.135 140.167C227.083 140.167 227.825 140.435 228.359 140.97C228.899 141.505 229.169 142.227 229.169 143.137V147.861H228.06V146.793H228.009C227.893 147.006 227.723 147.214 227.499 147.417C227.28 147.614 227.023 147.775 226.726 147.9C226.43 148.03 226.104 148.095 225.749 148.095ZM225.858 146.996C226.262 146.996 226.629 146.889 226.959 146.676C227.295 146.463 227.562 146.177 227.761 145.819C227.961 145.455 228.06 145.057 228.06 144.626C227.851 144.47 227.589 144.345 227.273 144.252C226.962 144.153 226.619 144.104 226.245 144.104C225.579 144.104 225.09 144.249 224.779 144.54C224.468 144.831 224.313 145.192 224.313 145.624C224.313 146.034 224.459 146.367 224.75 146.621C225.042 146.871 225.411 146.996 225.858 146.996ZM237.288 148.095C236.574 148.095 235.947 147.923 235.407 147.58C234.872 147.232 234.452 146.749 234.146 146.13C233.839 145.507 233.686 144.792 233.686 143.987V137.384H234.853V144.041C234.853 144.587 234.943 145.078 235.123 145.515C235.307 145.946 235.58 146.286 235.939 146.536C236.299 146.785 236.749 146.91 237.288 146.91C237.828 146.91 238.28 146.785 238.644 146.536C239.009 146.286 239.281 145.946 239.461 145.515C239.646 145.078 239.738 144.587 239.738 144.041V137.384H240.897V143.987C240.897 144.792 240.754 145.507 240.467 146.13C240.18 146.749 239.767 147.232 239.228 147.58C238.693 147.923 238.046 148.095 237.288 148.095ZM242.623 147.861V140.401H243.731V141.5H243.79C243.969 141.136 244.266 140.824 244.679 140.564C245.097 140.299 245.554 140.167 246.05 140.167C246.905 140.167 247.549 140.432 247.982 140.962C248.415 141.492 248.631 142.196 248.631 143.075V147.861H247.472V143.269C247.472 142.547 247.309 142.038 246.983 141.742C246.657 141.44 246.239 141.289 245.729 141.289C245.345 141.289 245.007 141.404 244.716 141.632C244.424 141.861 244.195 142.157 244.03 142.521C243.87 142.88 243.79 143.259 243.79 143.659V147.861H242.623ZM250.41 147.861V140.401H251.577V147.861H250.41ZM250.986 139.021C250.757 139.021 250.561 138.935 250.395 138.764C250.235 138.587 250.155 138.377 250.155 138.132C250.155 137.878 250.235 137.665 250.395 137.493C250.561 137.322 250.757 137.236 250.986 137.236C251.224 137.236 251.423 137.322 251.584 137.493C251.744 137.665 251.824 137.878 251.824 138.132C251.824 138.377 251.744 138.587 251.584 138.764C251.423 138.935 251.224 139.021 250.986 139.021ZM255.45 147.861L252.628 140.401H253.875L256.04 146.395H256.062L258.257 140.401H259.474L256.624 147.861H255.45ZM263.329 148.095C262.653 148.095 262.053 147.926 261.528 147.588C261.008 147.245 260.599 146.777 260.303 146.185C260.006 145.587 259.858 144.906 259.858 144.143C259.858 143.431 259.997 142.773 260.274 142.17C260.551 141.562 260.942 141.076 261.448 140.713C261.953 140.349 262.548 140.167 263.234 140.167C263.929 140.167 264.524 140.331 265.02 140.658C265.516 140.98 265.898 141.43 266.165 142.007C266.437 142.583 266.573 143.243 266.573 143.987C266.573 144.054 266.571 144.122 266.566 144.189C266.561 144.257 266.554 144.314 266.544 144.361H260.536V143.34H265.341C265.331 143.137 265.288 142.916 265.21 142.677C265.132 142.438 265.008 142.214 264.838 142.007C264.673 141.794 264.459 141.622 264.196 141.492C263.939 141.357 263.618 141.289 263.234 141.289C262.777 141.289 262.381 141.414 262.045 141.664C261.715 141.913 261.46 142.253 261.28 142.685C261.105 143.111 261.017 143.597 261.017 144.143C261.017 144.777 261.132 145.304 261.36 145.725C261.588 146.146 261.883 146.46 262.242 146.668C262.602 146.871 262.979 146.972 263.372 146.972C263.883 146.972 264.303 146.842 264.634 146.582C264.969 146.323 265.236 146.003 265.436 145.624L266.427 146.138C266.15 146.699 265.757 147.167 265.246 147.541C264.736 147.91 264.097 148.095 263.329 148.095ZM267.928 147.861V140.401H269.036V141.601H269.094C269.187 141.315 269.34 141.069 269.553 140.861C269.767 140.653 270.013 140.489 270.29 140.37C270.567 140.245 270.844 140.182 271.121 140.182C271.33 140.182 271.493 140.195 271.61 140.221C271.731 140.242 271.841 140.276 271.938 140.323V141.671C271.792 141.593 271.634 141.536 271.464 141.5C271.299 141.458 271.128 141.438 270.953 141.438C270.618 141.438 270.307 141.541 270.02 141.749C269.738 141.952 269.512 142.225 269.342 142.568C269.177 142.906 269.094 143.28 269.094 143.69V147.861H267.928ZM275.221 148.095C274.701 148.095 274.242 148.006 273.843 147.83C273.449 147.648 273.121 147.404 272.859 147.097C272.601 146.785 272.409 146.45 272.283 146.091L273.318 145.592C273.503 146.039 273.768 146.385 274.113 146.629C274.463 146.874 274.861 146.996 275.309 146.996C275.736 146.996 276.094 146.905 276.38 146.723C276.667 146.536 276.811 146.26 276.811 145.896C276.811 145.673 276.75 145.486 276.628 145.335C276.512 145.185 276.339 145.057 276.111 144.953C275.882 144.844 275.605 144.745 275.279 144.657L274.426 144.423C274.101 144.324 273.792 144.189 273.5 144.018C273.209 143.841 272.973 143.615 272.793 143.34C272.618 143.059 272.531 142.719 272.531 142.318C272.531 141.866 272.652 141.479 272.895 141.157C273.143 140.835 273.466 140.59 273.865 140.424C274.268 140.253 274.699 140.167 275.156 140.167C275.559 140.167 275.936 140.229 276.286 140.354C276.636 140.474 276.942 140.653 277.204 140.892C277.472 141.131 277.673 141.425 277.81 141.773L276.796 142.272C276.626 141.903 276.393 141.645 276.096 141.5C275.804 141.349 275.481 141.274 275.126 141.274C274.742 141.274 274.409 141.365 274.127 141.547C273.846 141.729 273.705 141.975 273.705 142.287C273.705 142.599 273.821 142.833 274.055 142.989C274.288 143.145 274.572 143.272 274.908 143.371L275.921 143.644C276.606 143.831 277.122 144.109 277.467 144.478C277.817 144.842 277.992 145.286 277.992 145.811C277.992 146.278 277.868 146.684 277.62 147.027C277.372 147.37 277.037 147.635 276.614 147.822C276.196 148.004 275.732 148.095 275.221 148.095ZM279.3 147.861V140.401H280.467V147.861H279.3ZM279.876 139.021C279.648 139.021 279.451 138.935 279.286 138.764C279.125 138.587 279.045 138.377 279.045 138.132C279.045 137.878 279.125 137.665 279.286 137.493C279.451 137.322 279.648 137.236 279.876 137.236C280.114 137.236 280.314 137.322 280.474 137.493C280.634 137.665 280.715 137.878 280.715 138.132C280.715 138.377 280.634 138.587 280.474 138.764C280.314 138.935 280.114 139.021 279.876 139.021ZM281.741 140.401H285.832V141.523H281.741V140.401ZM282.959 145.896V138.288H284.118V145.592C284.118 145.982 284.194 146.286 284.344 146.505C284.495 146.718 284.743 146.824 285.088 146.824C285.244 146.824 285.384 146.801 285.511 146.754C285.642 146.702 285.759 146.642 285.861 146.575V147.791C285.739 147.848 285.608 147.892 285.467 147.923C285.326 147.96 285.137 147.978 284.898 147.978C284.315 147.978 283.846 147.796 283.491 147.432C283.136 147.063 282.959 146.551 282.959 145.896ZM289.277 150.644C289.252 150.711 289.221 150.787 289.182 150.87C289.148 150.953 289.126 151.002 289.116 151.018H287.913C287.967 150.893 288.025 150.756 288.088 150.605C288.151 150.454 288.229 150.272 288.322 150.059C288.375 149.929 288.424 149.81 288.467 149.701C288.516 149.597 288.569 149.477 288.628 149.342C288.686 149.212 288.757 149.051 288.839 148.859L289.802 146.629L290.057 145.943L292.164 140.401H293.425L289.809 149.311C289.775 149.399 289.719 149.537 289.641 149.724C289.564 149.916 289.491 150.101 289.423 150.277C289.354 150.459 289.306 150.582 289.277 150.644ZM289.539 147.557L286.586 140.401H287.84L290.035 145.943H290.144L289.539 147.557Z" fill="#606060"/>
</g>
<defs>
<clipPath id="clip0_445_11">
<rect width="390" height="206" fill="white"/>
</clipPath>
</defs>
</svg>
