<svg width="1104" height="585" viewBox="0 0 1104 585" fill="none" xmlns="http://www.w3.org/2000/svg">
<path d="M306.436 29.2545L56.9598 200.872C4.60384 236.889 -7.34335 306.72 30.2789 356.843C67.9011 406.966 140.849 418.401 193.205 382.383L442.681 210.766C495.037 174.749 506.984 104.919 469.362 54.7961C431.74 4.67316 358.792 -6.76198 306.436 29.2545Z" fill="#FD2B25"/>
<path d="M125.608 412.083C118.984 412.083 111.898 411.631 105.283 410.274C72.2011 405.297 43.3657 387.65 23.5219 361.861C4.14102 335.618 -3.88911 303.947 1.78183 272.275C6.98092 240.602 25.4092 213.003 52.3484 194L301.896 22.5187C329.307 3.96831 362.389 -3.72395 395.471 1.70557C428.553 6.68308 457.388 24.3285 477.232 50.1183C496.613 76.361 504.652 108.033 498.972 139.705C493.773 171.377 475.345 198.977 448.406 217.979L198.858 389.46C177.118 404.392 152.075 412.083 126.079 412.083H125.608ZM374.675 16.6372C352.463 16.6372 330.251 23.4236 311.814 36.0925L62.2747 207.573C38.6384 223.862 23.5219 247.39 18.7947 274.989C14.0674 302.137 20.682 329.737 37.6948 351.907C54.7076 374.53 79.2876 389.008 108.114 393.533C136.478 398.057 165.304 391.723 188.46 375.435L438.008 203.954C461.635 187.665 476.76 164.137 481.488 136.538C486.215 109.39 479.6 81.7905 462.587 59.6204C445.566 36.9974 420.995 22.5187 392.159 17.9941C386.488 17.0892 380.346 16.6372 374.675 16.6372Z" fill="#1E1E1E"/>
<path d="M193.472 201.26C141.116 165.242 68.1771 176.677 30.5549 226.801C-7.06735 276.924 4.87094 346.754 57.2269 382.771L306.703 554.388C359.059 590.405 432.007 578.97 469.629 528.847C507.252 478.724 495.304 408.894 442.948 372.877L193.472 201.26Z" fill="#1F86FB"/>
<path d="M374.657 583.564C348.67 583.564 323.147 575.872 301.878 560.941L52.3305 389.46C-3.90696 351.002 -16.6732 275.441 23.504 221.599C42.8849 195.357 72.1832 178.164 105.265 173.186C138.347 168.21 171.438 175.449 198.849 194L448.388 365.481C504.634 403.939 517.392 479.499 477.223 533.342C457.842 559.584 428.544 576.777 395.453 581.754C388.367 582.659 381.752 583.564 375.137 583.564H374.657ZM125.59 188.57C119.919 188.57 113.776 189.023 108.105 189.928C79.7415 194.452 54.6986 209.383 37.6858 231.553C20.6641 254.176 14.0495 281.324 18.7768 308.471C23.5041 335.618 39.1013 359.598 62.2569 375.887L311.805 547.367C335.432 563.656 363.787 569.99 392.15 565.466C420.505 560.941 445.557 546.011 462.57 523.841C479.582 501.218 486.197 474.07 481.47 446.922C476.751 419.775 461.154 395.795 437.99 379.506L188.451 208.025C170.013 195.357 148.274 188.57 125.59 188.57Z" fill="#1E1E1E"/>
<path d="M909.487 201.189L660.011 372.806C607.655 408.824 595.716 478.654 633.339 528.777C670.961 578.899 743.9 590.335 796.256 554.318L1045.73 382.7C1098.09 346.684 1110.04 276.853 1072.41 226.73C1034.79 176.607 961.843 165.172 909.487 201.189Z" fill="#FFA600"/>
<path d="M728.196 583.565C688.971 583.565 650.69 566.372 626.11 533.795C585.942 479.952 598.699 404.845 654.945 365.934L904.484 194.453C931.895 175.902 964.986 168.211 998.068 173.64C1031.15 178.617 1059.98 196.263 1079.83 222.053C1120.01 275.895 1107.24 351.003 1051 389.914L801.455 561.395C779.243 576.779 753.719 584.018 728.196 584.018V583.565ZM977.272 188.571C955.06 188.571 932.848 195.358 914.411 208.027L664.872 379.507C616.664 412.989 605.314 477.69 640.292 523.841C675.27 569.991 742.849 580.85 791.057 547.368L1040.6 375.887C1088.81 342.406 1100.15 277.705 1065.18 231.554C1048.16 208.932 1023.59 194.453 994.756 189.929C989.085 189.024 982.942 188.571 977.272 188.571Z" fill="#1E1E1E"/>
<path d="M796.051 28.8893C743.695 -7.12721 670.747 4.30793 633.125 54.4309C595.503 104.554 607.45 174.384 659.806 210.401L909.283 382.018C961.639 418.035 1034.58 406.6 1072.2 356.477C1109.82 306.354 1097.88 236.524 1045.53 200.507L796.051 28.8893Z" fill="#00AA47"/>
<path d="M977.272 412.081C951.276 412.081 925.752 404.389 904.484 389.458L654.945 217.977C598.699 179.518 585.942 103.958 626.11 50.1156C666.287 -3.72663 745.217 -15.9426 801.455 22.516L1051 193.997C1107.24 232.456 1120.01 308.016 1079.83 361.858C1060.45 388.101 1031.15 405.294 998.068 410.271C990.973 411.176 984.358 412.081 977.743 412.081H977.272ZM640.292 59.6177C623.279 82.2407 616.664 109.387 621.383 136.535C626.11 163.683 641.707 187.662 664.872 203.951L914.411 375.432C938.047 391.72 966.402 398.055 994.756 393.53C1023.11 389.006 1048.16 374.074 1065.18 351.904C1082.2 329.281 1088.81 302.134 1084.08 274.987C1079.36 247.839 1063.76 223.859 1040.6 207.571L791.057 36.0898C742.849 2.60779 675.27 13.4668 640.292 59.6177Z" fill="#1E1E1E"/>
</svg>
