<svg width="646" height="631" viewBox="0 0 646 631" fill="none" xmlns="http://www.w3.org/2000/svg">
<path fill-rule="evenodd" clip-rule="evenodd" d="M323.841 20.822C382.966 14.8741 458.797 -22.8877 499.072 20.8037C544.634 70.2291 492.389 153.157 506.43 218.896C514.934 258.713 546.662 287.426 563.898 324.313C592.465 385.45 662.755 443.628 641.339 507.621C621.558 566.73 534.742 567.229 475.81 587.532C426.179 604.631 376.23 613.668 323.841 617.003C268.395 620.533 196.328 649.891 160.274 607.619C119.174 559.43 186.887 476.496 156.572 420.886C127.515 367.584 28.7882 380.514 5.83392 324.313C-15.0968 273.067 24.8756 215.616 53.3431 168.141C81.5231 121.146 119.725 80.3334 167.848 54.1248C215.351 28.2536 270.022 26.2362 323.841 20.822Z" fill="#4385F5"/>
</svg>
