<svg width="270" height="499" viewBox="0 0 270 499" fill="none" xmlns="http://www.w3.org/2000/svg">
<path d="M210.831 398.196L249.331 398.323C254.025 398.339 257.844 394.546 257.859 389.852L257.974 355.352C257.996 348.448 252.419 342.833 245.515 342.811C238.611 342.788 233.034 337.173 233.057 330.269L233.148 302.769C233.175 294.485 226.482 287.747 218.197 287.72L68.6983 287.224C60.4141 287.197 53.6761 293.89 53.6487 302.174L53.55 331.924C53.5313 337.585 48.927 342.159 43.2661 342.14C37.6052 342.121 33.001 346.695 32.9822 352.356L32.8885 380.606C32.8611 388.89 39.5545 395.628 47.8387 395.656L83.8385 395.775C92.1228 395.802 98.8607 389.109 98.8882 380.825L98.9661 357.325C98.9936 349.041 105.732 342.347 114.016 342.375L181.015 342.597C189.3 342.624 195.993 349.362 195.966 357.646L195.881 383.146C195.854 391.43 202.547 398.168 210.831 398.196Z" fill="black"/>
<path d="M215.816 402.212L254.315 402.34C259.01 402.355 262.828 398.562 262.844 393.868L262.958 359.368C262.981 352.465 257.403 346.85 250.499 346.827C243.596 346.804 238.018 341.189 238.041 334.286L238.132 306.786C238.16 298.501 231.466 291.763 223.182 291.736L73.6827 291.24C65.3985 291.213 58.6605 297.906 58.633 306.191L58.5344 335.94C58.5157 341.601 53.9114 346.175 48.2505 346.156C42.5896 346.138 37.9853 350.711 37.9666 356.372L37.8729 384.622C37.8455 392.906 44.5389 399.644 52.8231 399.672L88.8229 399.791C97.1071 399.819 103.845 393.125 103.873 384.841L103.95 361.341C103.978 353.057 110.716 346.363 119 346.391L186 346.613C194.284 346.641 200.977 353.378 200.95 361.663L200.865 387.163C200.838 395.447 207.531 402.185 215.816 402.212Z" fill="#1F86FB" stroke="black"/>
<path d="M175.811 403.58L175.741 424.58C175.714 432.864 168.976 439.557 160.691 439.53L157.191 439.518C148.907 439.491 142.169 446.184 142.142 454.468L142.061 478.968C142.033 487.252 135.295 493.946 127.011 493.918L93.0111 493.806C84.7269 493.778 78.0334 487.04 78.0609 478.756L78.1471 452.756C78.1718 445.3 84.236 439.276 91.6918 439.301C99.1476 439.326 105.212 433.302 105.236 425.846L105.311 403.346C105.339 395.062 112.076 388.368 120.361 388.396L160.86 388.53C169.145 388.558 175.838 395.295 175.811 403.58Z" fill="black"/>
<path d="M180.799 407.596L180.729 428.596C180.702 436.88 173.964 443.574 165.68 443.546L162.18 443.535C153.895 443.507 147.158 450.201 147.13 458.485L147.049 482.985C147.021 491.269 140.283 497.962 131.999 497.935L97.9994 497.822C89.7152 497.795 83.0217 491.057 83.0492 482.773L83.1354 456.773C83.1601 449.317 89.2243 443.293 96.6801 443.318C104.136 443.342 110.2 437.318 110.225 429.862L110.299 407.363C110.327 399.078 117.065 392.385 125.349 392.412L165.849 392.547C174.133 392.574 180.826 399.312 180.799 407.596Z" fill="#FFC20E" stroke="black"/>
<path d="M70.2422 273.729L217.741 274.218C226.026 274.245 232.764 267.552 232.791 259.268L232.869 235.768C232.896 227.484 226.203 220.746 217.919 220.718L117.419 220.385C109.135 220.358 102.442 213.62 102.469 205.335L102.559 178.336C102.586 170.051 109.324 163.358 117.608 163.385L197.108 163.649C205.392 163.676 212.13 156.983 212.157 148.699L212.234 125.699C212.261 117.415 218.999 110.721 227.283 110.749L248.783 110.82C257.067 110.847 263.805 104.154 263.833 95.8697L263.916 70.8699C263.943 62.5856 257.25 55.8477 248.966 55.8202L224.466 55.739C216.181 55.7115 209.488 48.9736 209.515 40.6894L209.598 15.6895C209.626 7.40526 202.932 0.667309 194.648 0.639847L16.6491 0.049783C8.36489 0.0223209 1.62694 6.71575 1.59947 15L0.969632 204.999C0.94217 213.283 7.6356 220.021 15.9198 220.049L40.4197 220.13C48.7039 220.157 55.3973 226.895 55.3699 235.179L55.292 258.679C55.2645 266.964 61.9579 273.701 70.2422 273.729Z" fill="black"/>
<path d="M75.2226 279.746L222.722 280.235C231.006 280.262 237.744 273.569 237.771 265.284L237.849 241.784C237.877 233.5 231.183 226.762 222.899 226.735L122.4 226.402C114.116 226.374 107.422 219.636 107.45 211.352L107.539 184.352C107.567 176.068 114.304 169.374 122.589 169.402L202.088 169.665C210.372 169.693 217.11 163 217.138 154.715L217.214 131.715C217.242 123.431 223.98 116.738 232.264 116.765L253.764 116.837C262.048 116.864 268.786 110.171 268.813 101.886L268.896 76.8865C268.924 68.6022 262.23 61.8643 253.946 61.8368L229.446 61.7556C221.162 61.7281 214.468 54.9902 214.496 46.706L214.579 21.7061C214.606 13.4219 207.913 6.68391 199.629 6.65645L21.6296 6.06638C13.3454 6.03892 6.60741 12.7324 6.57994 21.0166L5.9501 211.016C5.92264 219.3 12.6161 226.038 20.9003 226.065L45.4002 226.146C53.6844 226.174 60.3778 232.912 60.3504 241.196L60.2725 264.696C60.245 272.98 66.9384 279.718 75.2226 279.746Z" fill="#FF3D37" stroke="black"/>
<path d="M106.999 109H141.999C150.283 109 156.999 102.284 156.999 94.0001V70.0001C156.999 61.7158 150.283 55.0001 141.999 55.0001H106.999C98.7147 55.0001 91.9989 61.7158 91.9989 70.0001V94.0001C91.9989 102.284 98.7147 109 106.999 109Z" fill="black" stroke="black"/>
<path d="M110.999 112H145.999C154.283 112 160.999 105.284 160.999 97.0001V73.0001C160.999 64.7158 154.283 58.0001 145.999 58.0001H110.999C102.715 58.0001 95.9989 64.7158 95.9989 73.0001V97.0001C95.9989 105.284 102.715 112 110.999 112Z" fill="#FDFCF8" stroke="black"/>
</svg>
