<svg width="123" height="144" viewBox="0 0 123 144" fill="none" xmlns="http://www.w3.org/2000/svg">
<path d="M73.4048 14.3248L20.2129 52.0225C9.04963 59.9341 6.50282 75.2731 14.5245 86.2832C22.5461 97.2932 38.0986 99.8051 49.2618 91.8936L102.454 54.1959C113.617 46.2843 116.164 30.9453 108.142 19.9352C100.121 8.92516 84.5681 6.41329 73.4048 14.3248Z" fill="#FD2B25"/>
<path d="M34.85 98.4171C33.4392 98.4171 31.9277 98.3178 30.5169 98.0196C23.463 96.9263 17.316 93.0503 13.0837 87.3852C8.95208 81.6207 7.23899 74.6637 8.44823 67.7066C9.5567 60.7495 13.4867 54.6868 19.2306 50.5126L72.4372 12.8449C78.2819 8.77003 85.3358 7.08045 92.3897 8.27309C99.4436 9.36635 105.591 13.2424 109.823 18.9075C113.954 24.672 115.668 31.629 114.458 38.5861C113.35 45.5432 109.42 51.6059 103.676 55.7801L50.4693 93.4478C45.8339 96.7276 40.4931 98.4171 34.9508 98.4171H34.85ZM87.9558 11.5529C83.2196 11.5529 78.4834 13.0437 74.5534 15.8265L21.3468 53.4942C16.3083 57.0721 13.0837 62.2403 12.076 68.3029C11.0683 74.2661 12.479 80.3287 16.1068 85.1987C19.7345 90.168 24.9745 93.3484 31.1215 94.3423C37.1677 95.3362 43.3147 93.9447 48.2524 90.3668L101.459 52.6991C106.498 49.1212 109.722 43.953 110.73 37.8904C111.738 31.9272 110.327 25.8646 106.699 20.9946C103.071 16.0253 97.8313 12.8449 91.6843 11.851C90.4751 11.6523 89.1651 11.5529 87.9558 11.5529Z" fill="#1E1E1E"/>
<path d="M49.3214 52.1055C38.1581 44.1939 22.6057 46.7058 14.584 57.7159C6.56239 68.7259 9.1092 84.0649 20.2725 91.9765L73.4644 129.674C84.6277 137.586 100.18 135.074 108.202 124.064C116.223 113.054 113.677 97.7147 102.513 89.8031L49.3214 52.1055Z" fill="#1F86FB"/>
<path d="M87.9536 136.08C82.4112 136.08 76.9696 134.391 72.435 131.111L19.2284 93.4433C7.23673 84.9954 4.51595 68.3978 13.0814 56.5708C17.213 50.8063 23.4607 47.0296 30.5146 45.9363C37.5685 44.8431 44.6224 46.4333 50.4671 50.5081L103.674 88.1758C115.665 96.6237 118.386 113.221 109.821 125.048C105.689 130.813 99.4413 134.59 92.3874 135.683C90.8759 135.882 89.4651 136.08 88.0543 136.08H87.9536ZM34.8477 49.3155C33.6385 49.3155 32.3285 49.4149 31.1192 49.6137C25.073 50.6075 19.7322 53.8873 16.1045 58.7573C12.4768 63.7266 11.066 69.6898 12.0737 75.6531C13.0814 81.6163 16.4068 86.8838 21.3445 90.4617L74.5511 128.129C79.5896 131.707 85.6358 133.099 91.682 132.105C97.7282 131.111 103.069 127.831 106.697 122.961C110.325 117.992 111.735 112.029 110.728 106.066C109.72 100.102 106.394 94.8348 101.457 91.2568L48.2501 53.5891C44.3201 50.8063 39.6847 49.3155 34.8477 49.3155Z" fill="#1E1E1E"/>
</svg>
