<svg width="121" height="143" viewBox="0 0 121 143" fill="none" xmlns="http://www.w3.org/2000/svg">
<path d="M72.4259 51.4427L19.9766 88.6141C8.96918 96.4152 6.45793 111.54 14.3676 122.396C22.2772 133.253 37.6125 135.73 48.62 127.929L101.069 90.7571C112.077 82.956 114.588 67.8312 106.678 56.9748C98.7687 46.1184 83.4334 43.6417 72.4259 51.4427Z" fill="#FFA600"/>
<path d="M34.3082 134.264C26.061 134.264 18.0126 130.54 12.8457 123.484C4.39982 111.823 7.08264 95.5546 18.9069 87.1266L71.3707 49.9848C77.1337 45.9668 84.0891 44.3009 91.0445 45.4768C98 46.5548 104.061 50.3768 108.234 55.9628C116.68 67.6247 113.997 83.8927 102.173 92.3206L49.7095 129.462C45.0394 132.794 39.6738 134.362 34.3082 134.362V134.264ZM86.6726 48.7108C82.0025 48.7108 77.3324 50.1808 73.4573 52.9248L20.9935 90.0666C10.8584 97.3186 8.47371 111.333 15.8266 121.328C23.1795 131.324 37.3884 133.676 47.5235 126.424L99.9872 89.2826C110.122 82.0307 112.507 68.0167 105.154 58.0208C101.577 53.1208 96.4101 49.9848 90.349 49.0048C89.1566 48.8088 87.8649 48.7108 86.6726 48.7108Z" fill="#1E1E1E"/>
<path d="M48.5741 14.1252C37.5667 6.3241 22.2313 8.8009 14.3217 19.6573C6.41203 30.5136 8.92329 45.6385 19.9307 53.4396L72.38 90.611C83.3875 98.4121 98.7228 95.9353 106.632 85.0789C114.542 74.2225 112.031 59.0977 101.023 51.2966L48.5741 14.1252Z" fill="#00AA47"/>
<path d="M86.6726 97.1225C81.2076 97.1225 75.842 95.4565 71.3707 92.2225L18.9069 55.0807C7.08264 46.7508 4.39982 30.3849 12.8457 18.7229C21.2916 7.06097 37.8852 4.41499 49.7095 12.7449L102.173 49.8868C113.997 58.2167 116.68 74.5826 108.234 86.2446C104.16 91.9286 98 95.6525 91.0445 96.7305C89.5541 96.9265 88.163 97.1225 86.7719 97.1225H86.6726ZM15.8266 20.7809C12.2495 25.6809 10.8584 31.5609 11.8521 37.4408C12.8457 43.3208 16.1247 48.5148 20.9935 52.0427L73.4573 89.1846C78.4254 92.7125 84.3872 94.0845 90.349 93.1045C96.3108 92.1245 101.577 88.8906 105.154 84.0886C108.731 79.1886 110.122 73.3086 109.129 67.4287C108.135 61.5487 104.856 56.3547 99.9872 52.8267L47.5235 15.6849C37.3884 8.43297 23.1795 10.785 15.8266 20.7809Z" fill="#1E1E1E"/>
</svg>
